<?xml version="1.0" encoding="UTF-8" standalone="no"?>
<!DOCTYPE svg PUBLIC "-//W3C//DTD SVG 1.1//EN"
 "http://www.w3.org/Graphics/SVG/1.1/DTD/svg11.dtd">
<!-- Generated by graphviz version 7.1.0 (20230121.1956)
 -->
<!-- Title: graphdotfile Pages: 1 -->
<svg width="1693pt" height="1610pt"
 viewBox="0.00 0.00 1693.00 1610.00" xmlns="http://www.w3.org/2000/svg" xmlns:xlink="http://www.w3.org/1999/xlink">
<g id="graph0" class="graph" transform="scale(1 1) rotate(0) translate(4 1606)">
<title>graphdotfile</title>
<polygon fill="white" stroke="none" points="-4,4 -4,-1606 1689,-1606 1689,4 -4,4"/>
<!-- 0 -->
<g id="node1" class="node">
<title>0</title>
<ellipse fill="none" stroke="black" cx="1225" cy="-1584" rx="27" ry="18"/>
<text text-anchor="middle" x="1225" y="-1580.3" font-family="Times,serif" font-size="14.00">0</text>
</g>
<!-- 1 -->
<g id="node2" class="node">
<title>1</title>
<ellipse fill="none" stroke="black" cx="526" cy="-1497" rx="27" ry="18"/>
<text text-anchor="middle" x="526" y="-1493.3" font-family="Times,serif" font-size="14.00">1</text>
</g>
<!-- 0&#45;&gt;1 -->
<g id="edge1" class="edge">
<title>0&#45;&gt;1</title>
<path fill="none" stroke="black" d="M1198.45,-1579.77C1091.19,-1566.73 689.57,-1517.89 563.86,-1502.6"/>
<polygon fill="black" stroke="black" points="564.43,-1499.15 554.08,-1501.41 563.58,-1506.1 564.43,-1499.15"/>
<text text-anchor="middle" x="922" y="-1536.8" font-family="Times,serif" font-size="14.00">A</text>
</g>
<!-- 2 -->
<g id="node3" class="node">
<title>2</title>
<ellipse fill="none" stroke="black" cx="145" cy="-18" rx="27" ry="18"/>
<text text-anchor="middle" x="145" y="-14.3" font-family="Times,serif" font-size="14.00">2</text>
</g>
<!-- 0&#45;&gt;2 -->
<g id="edge2" class="edge">
<title>0&#45;&gt;2</title>
<path fill="none" stroke="black" d="M1197.78,-1583.12C1033.72,-1583.73 179.9,-1585.06 70,-1548 33.77,-1535.78 0,-1536.23 0,-1498 0,-1498 0,-1498 0,-104 0,-54.28 64.23,-33.09 107.19,-24.48"/>
<polygon fill="black" stroke="black" points="107.71,-27.94 116.92,-22.69 106.45,-21.06 107.71,-27.94"/>
<text text-anchor="middle" x="5" y="-797.3" font-family="Times,serif" font-size="14.00">A</text>
</g>
<!-- 18 -->
<g id="node4" class="node">
<title>18</title>
<ellipse fill="none" stroke="black" cx="1302" cy="-714" rx="27" ry="18"/>
<text text-anchor="middle" x="1302" y="-710.3" font-family="Times,serif" font-size="14.00">18</text>
</g>
<!-- 0&#45;&gt;18 -->
<g id="edge3" class="edge">
<title>0&#45;&gt;18</title>
<path fill="none" stroke="black" d="M1229.18,-1565.86C1232.99,-1548.78 1238,-1521.74 1238,-1498 1238,-1498 1238,-1498 1238,-1191.5 1238,-1093.13 1231.11,-840.35 1270,-750 1271.94,-745.49 1274.71,-741.18 1277.83,-737.23"/>
<polygon fill="black" stroke="black" points="1280.38,-739.62 1284.46,-729.84 1275.17,-734.94 1280.38,-739.62"/>
<text text-anchor="middle" x="1242" y="-1145.3" font-family="Times,serif" font-size="14.00">A</text>
</g>
<!-- 19 -->
<g id="node5" class="node">
<title>19</title>
<ellipse fill="none" stroke="black" cx="1586" cy="-627" rx="27" ry="18"/>
<text text-anchor="middle" x="1586" y="-623.3" font-family="Times,serif" font-size="14.00">19</text>
</g>
<!-- 0&#45;&gt;19 -->
<g id="edge4" class="edge">
<title>0&#45;&gt;19</title>
<path fill="none" stroke="black" d="M1251.95,-1580.95C1324.23,-1574.7 1517,-1552.91 1517,-1498 1517,-1498 1517,-1498 1517,-1104.5 1517,-946.3 1526.07,-906.52 1549,-750 1554.75,-710.74 1555.05,-700.14 1569,-663 1570.02,-660.29 1571.17,-657.5 1572.39,-654.75"/>
<polygon fill="black" stroke="black" points="1575.49,-656.37 1576.58,-645.83 1569.16,-653.39 1575.49,-656.37"/>
<text text-anchor="middle" x="1522" y="-1101.8" font-family="Times,serif" font-size="14.00">A</text>
</g>
<!-- 1&#45;&gt;0 -->
<g id="edge5" class="edge">
<title>1&#45;&gt;0</title>
<path fill="none" stroke="black" d="M553.1,-1499.57C618.34,-1503.51 789.24,-1514.85 931,-1533 1024.01,-1544.91 1132.57,-1564.99 1188.13,-1575.73"/>
<polygon fill="black" stroke="black" points="1187.18,-1579.11 1197.66,-1577.58 1188.52,-1572.24 1187.18,-1579.11"/>
<text text-anchor="middle" x="1033" y="-1536.8" font-family="Times,serif" font-size="14.00">A</text>
</g>
<!-- 1&#45;&gt;2 -->
<g id="edge6" class="edge">
<title>1&#45;&gt;2</title>
<path fill="none" stroke="black" d="M498.77,-1495.6C417.88,-1494.1 180.21,-1487.51 108,-1461 72.11,-1447.82 38,-1449.23 38,-1411 38,-1411 38,-1411 38,-104 38,-66.44 78.93,-42.82 110.16,-30.27"/>
<polygon fill="black" stroke="black" points="111.18,-33.63 119.3,-26.83 108.71,-27.08 111.18,-33.63"/>
<text text-anchor="middle" x="43" y="-753.8" font-family="Times,serif" font-size="14.00">A</text>
</g>
<!-- 1&#45;&gt;19 -->
<g id="edge8" class="edge">
<title>1&#45;&gt;19</title>
<path fill="none" stroke="black" d="M553.2,-1495.23C716.82,-1490.46 1563,-1463.22 1563,-1411 1563,-1411 1563,-1411 1563,-756.5 1563,-721.32 1571.46,-681.56 1578.11,-655.71"/>
<polygon fill="black" stroke="black" points="1581.42,-656.9 1580.62,-646.33 1574.65,-655.09 1581.42,-656.9"/>
<text text-anchor="middle" x="1568" y="-1058.3" font-family="Times,serif" font-size="14.00">A</text>
</g>
<!-- 3 -->
<g id="node6" class="node">
<title>3</title>
<ellipse fill="none" stroke="black" cx="312" cy="-1410" rx="27" ry="18"/>
<text text-anchor="middle" x="312" y="-1406.3" font-family="Times,serif" font-size="14.00">3</text>
</g>
<!-- 1&#45;&gt;3 -->
<g id="edge7" class="edge">
<title>1&#45;&gt;3</title>
<path fill="none" stroke="black" d="M503.1,-1486.9C465.21,-1471.85 389.31,-1441.71 345.42,-1424.28"/>
<polygon fill="black" stroke="black" points="346.73,-1421.03 336.14,-1420.59 344.15,-1427.53 346.73,-1421.03"/>
<text text-anchor="middle" x="437" y="-1449.8" font-family="Times,serif" font-size="14.00">A</text>
</g>
<!-- 2&#45;&gt;0 -->
<g id="edge9" class="edge">
<title>2&#45;&gt;0</title>
<path fill="none" stroke="black" d="M127.68,-31.95C109.65,-47.06 84,-73.85 84,-104 84,-1498 84,-1498 84,-1498 84,-1554.54 986.86,-1577.75 1186.31,-1582.19"/>
<polygon fill="black" stroke="black" points="1186.05,-1585.68 1196.13,-1582.4 1186.21,-1578.68 1186.05,-1585.68"/>
<text text-anchor="middle" x="89" y="-797.3" font-family="Times,serif" font-size="14.00">A</text>
</g>
<!-- 2&#45;&gt;1 -->
<g id="edge10" class="edge">
<title>2&#45;&gt;1</title>
<path fill="none" stroke="black" d="M137.72,-35.58C130.98,-52.45 122,-79.54 122,-104 122,-1411 122,-1411 122,-1411 122,-1485.2 386.28,-1494.98 487.34,-1496"/>
<polygon fill="black" stroke="black" points="487.01,-1499.5 497.04,-1496.08 487.06,-1492.5 487.01,-1499.5"/>
<text text-anchor="middle" x="127" y="-753.8" font-family="Times,serif" font-size="14.00">A</text>
</g>
<!-- 2&#45;&gt;3 -->
<g id="edge11" class="edge">
<title>2&#45;&gt;3</title>
<path fill="none" stroke="black" d="M164.22,-31.17C184.64,-45.76 214,-72.26 214,-104 214,-1324 214,-1324 214,-1324 214,-1358.95 250.01,-1382.76 278.37,-1396.09"/>
<polygon fill="black" stroke="black" points="276.83,-1399.24 287.39,-1400.08 279.66,-1392.84 276.83,-1399.24"/>
<text text-anchor="middle" x="219" y="-710.3" font-family="Times,serif" font-size="14.00">A</text>
</g>
<!-- 4 -->
<g id="node7" class="node">
<title>4</title>
<ellipse fill="none" stroke="black" cx="329" cy="-105" rx="27" ry="18"/>
<text text-anchor="middle" x="329" y="-101.3" font-family="Times,serif" font-size="14.00">4</text>
</g>
<!-- 2&#45;&gt;4 -->
<g id="edge12" class="edge">
<title>2&#45;&gt;4</title>
<path fill="none" stroke="black" d="M172.25,-20.4C202.83,-23.1 252.87,-30.98 289,-54 298.64,-60.14 306.99,-69.41 313.53,-78.31"/>
<polygon fill="black" stroke="black" points="310.52,-80.11 319.04,-86.41 316.3,-76.17 310.52,-80.11"/>
<text text-anchor="middle" x="311" y="-57.8" font-family="Times,serif" font-size="14.00">A</text>
</g>
<!-- 18&#45;&gt;0 -->
<g id="edge76" class="edge">
<title>18&#45;&gt;0</title>
<path fill="none" stroke="black" d="M1296.21,-732.03C1290.94,-749.04 1284,-776.02 1284,-800 1284,-1498 1284,-1498 1284,-1498 1284,-1523.24 1266.23,-1546.38 1250.19,-1562.12"/>
<polygon fill="black" stroke="black" points="1248.13,-1559.26 1243.18,-1568.62 1252.89,-1564.39 1248.13,-1559.26"/>
<text text-anchor="middle" x="1289" y="-1145.3" font-family="Times,serif" font-size="14.00">A</text>
</g>
<!-- 18&#45;&gt;19 -->
<g id="edge75" class="edge">
<title>18&#45;&gt;19</title>
<path fill="none" stroke="black" d="M1326.21,-705.75C1376.52,-690.7 1492.49,-655.99 1550.96,-638.49"/>
<polygon fill="black" stroke="black" points="1551.82,-641.88 1560.4,-635.66 1549.81,-635.18 1551.82,-641.88"/>
<text text-anchor="middle" x="1466" y="-666.8" font-family="Times,serif" font-size="14.00">A</text>
</g>
<!-- 16 -->
<g id="node19" class="node">
<title>16</title>
<ellipse fill="none" stroke="black" cx="1349" cy="-627" rx="27" ry="18"/>
<text text-anchor="middle" x="1349" y="-623.3" font-family="Times,serif" font-size="14.00">16</text>
</g>
<!-- 18&#45;&gt;16 -->
<g id="edge73" class="edge">
<title>18&#45;&gt;16</title>
<path fill="none" stroke="black" d="M1301.03,-695.87C1301.17,-685.76 1302.63,-673.02 1308,-663 1311.23,-656.98 1315.95,-651.54 1321.05,-646.85"/>
<polygon fill="black" stroke="black" points="1323.11,-649.68 1328.63,-640.64 1318.68,-644.27 1323.11,-649.68"/>
<text text-anchor="middle" x="1313" y="-666.8" font-family="Times,serif" font-size="14.00">A</text>
</g>
<!-- 17 -->
<g id="node20" class="node">
<title>17</title>
<ellipse fill="none" stroke="black" cx="1339" cy="-801" rx="27" ry="18"/>
<text text-anchor="middle" x="1339" y="-797.3" font-family="Times,serif" font-size="14.00">17</text>
</g>
<!-- 18&#45;&gt;17 -->
<g id="edge74" class="edge">
<title>18&#45;&gt;17</title>
<path fill="none" stroke="black" d="M1315.43,-730.13C1320.02,-735.99 1324.8,-742.97 1328,-750 1331.06,-756.71 1333.29,-764.33 1334.91,-771.56"/>
<polygon fill="black" stroke="black" points="1331.45,-772.11 1336.76,-781.28 1338.33,-770.8 1331.45,-772.11"/>
<text text-anchor="middle" x="1338" y="-753.8" font-family="Times,serif" font-size="14.00">A</text>
</g>
<!-- 19&#45;&gt;0 -->
<g id="edge79" class="edge">
<title>19&#45;&gt;0</title>
<path fill="none" stroke="black" d="M1590.83,-645.1C1595.21,-662.15 1601,-689.17 1601,-713 1601,-1498 1601,-1498 1601,-1498 1601,-1566.59 1359.93,-1579.84 1263.85,-1582.39"/>
<polygon fill="black" stroke="black" points="1263.77,-1578.89 1253.86,-1582.63 1263.94,-1585.89 1263.77,-1578.89"/>
<text text-anchor="middle" x="1606" y="-1101.8" font-family="Times,serif" font-size="14.00">A</text>
</g>
<!-- 19&#45;&gt;1 -->
<g id="edge80" class="edge">
<title>19&#45;&gt;1</title>
<path fill="none" stroke="black" d="M1601.62,-641.99C1617.25,-657.62 1639,-684.48 1639,-713 1639,-845.5 1639,-845.5 1639,-845.5 1639,-960.67 1647,-989.33 1647,-1104.5 1647,-1411 1647,-1411 1647,-1411 1647,-1539.6 1489.92,-1447.82 1362,-1461 1055.7,-1492.56 683.48,-1495.85 564.5,-1496.05"/>
<polygon fill="black" stroke="black" points="564.66,-1492.55 554.66,-1496.06 564.67,-1499.55 564.66,-1492.55"/>
<text text-anchor="middle" x="1651" y="-1058.3" font-family="Times,serif" font-size="14.00">A</text>
</g>
<!-- 19&#45;&gt;18 -->
<g id="edge78" class="edge">
<title>19&#45;&gt;18</title>
<path fill="none" stroke="black" d="M1565.28,-639.03C1543.39,-650.27 1507.59,-667.51 1475,-678 1429.53,-692.64 1375.29,-702.43 1339.82,-707.84"/>
<polygon fill="black" stroke="black" points="1339.43,-704.36 1330.05,-709.29 1340.45,-711.29 1339.43,-704.36"/>
<text text-anchor="middle" x="1517" y="-666.8" font-family="Times,serif" font-size="14.00">A</text>
</g>
<!-- 19&#45;&gt;17 -->
<g id="edge77" class="edge">
<title>19&#45;&gt;17</title>
<path fill="none" stroke="black" d="M1612.3,-631.56C1631.31,-635.65 1655.72,-644.4 1668,-663 1685.35,-689.27 1673.28,-708.8 1652,-732 1615.29,-772.02 1452.42,-790.55 1377.25,-797.09"/>
<polygon fill="black" stroke="black" points="1377.15,-793.59 1367.48,-797.91 1377.74,-800.56 1377.15,-793.59"/>
<text text-anchor="middle" x="1680" y="-710.3" font-family="Times,serif" font-size="14.00">A</text>
</g>
<!-- 3&#45;&gt;1 -->
<g id="edge13" class="edge">
<title>3&#45;&gt;1</title>
<path fill="none" stroke="black" d="M338.21,-1415.41C365.8,-1420.6 410.12,-1430.53 446,-1446 464.75,-1454.08 484.22,-1466.16 499.25,-1476.41"/>
<polygon fill="black" stroke="black" points="496.99,-1479.1 507.2,-1481.96 501,-1473.37 496.99,-1479.1"/>
<text text-anchor="middle" x="478" y="-1449.8" font-family="Times,serif" font-size="14.00">A</text>
</g>
<!-- 3&#45;&gt;2 -->
<g id="edge14" class="edge">
<title>3&#45;&gt;2</title>
<path fill="none" stroke="black" d="M285.59,-1405.52C244.02,-1398.4 168,-1378 168,-1324 168,-1324 168,-1324 168,-104 168,-84.13 162.07,-62.52 156.23,-46.06"/>
<polygon fill="black" stroke="black" points="159.61,-45.11 152.81,-36.99 153.06,-47.58 159.61,-45.11"/>
<text text-anchor="middle" x="173" y="-710.3" font-family="Times,serif" font-size="14.00">A</text>
</g>
<!-- 3&#45;&gt;4 -->
<g id="edge15" class="edge">
<title>3&#45;&gt;4</title>
<path fill="none" stroke="black" d="M294.65,-1395.71C276.93,-1380.5 252,-1353.8 252,-1324 252,-1324 252,-1324 252,-191 252,-166.35 259.8,-159.57 276,-141 282.17,-133.93 290.09,-127.69 297.92,-122.52"/>
<polygon fill="black" stroke="black" points="299.66,-125.55 306.36,-117.34 296,-119.59 299.66,-125.55"/>
<text text-anchor="middle" x="257" y="-753.8" font-family="Times,serif" font-size="14.00">A</text>
</g>
<!-- 5 -->
<g id="node8" class="node">
<title>5</title>
<ellipse fill="none" stroke="black" cx="401" cy="-1323" rx="27" ry="18"/>
<text text-anchor="middle" x="401" y="-1319.3" font-family="Times,serif" font-size="14.00">5</text>
</g>
<!-- 3&#45;&gt;5 -->
<g id="edge16" class="edge">
<title>3&#45;&gt;5</title>
<path fill="none" stroke="black" d="M324.76,-1394.03C333.71,-1383.81 346.15,-1370.16 358,-1359 363.34,-1353.98 369.3,-1348.85 375.05,-1344.12"/>
<polygon fill="black" stroke="black" points="377.01,-1347.03 382.6,-1338.04 372.62,-1341.58 377.01,-1347.03"/>
<text text-anchor="middle" x="363" y="-1362.8" font-family="Times,serif" font-size="14.00">A</text>
</g>
<!-- 4&#45;&gt;2 -->
<g id="edge17" class="edge">
<title>4&#45;&gt;2</title>
<path fill="none" stroke="black" d="M308.29,-93.29C287.99,-82.9 256.11,-66.87 228,-54 211.75,-46.56 193.47,-38.79 178.21,-32.47"/>
<polygon fill="black" stroke="black" points="179.69,-29.29 169.11,-28.72 177.02,-35.76 179.69,-29.29"/>
<text text-anchor="middle" x="264" y="-57.8" font-family="Times,serif" font-size="14.00">A</text>
</g>
<!-- 4&#45;&gt;3 -->
<g id="edge18" class="edge">
<title>4&#45;&gt;3</title>
<path fill="none" stroke="black" d="M317.09,-121.33C305.62,-137.65 290,-164.7 290,-191 290,-1324 290,-1324 290,-1324 290,-1343.82 295.67,-1365.43 301.26,-1381.9"/>
<polygon fill="black" stroke="black" points="297.84,-1382.75 304.53,-1390.97 304.43,-1380.38 297.84,-1382.75"/>
<text text-anchor="middle" x="295" y="-753.8" font-family="Times,serif" font-size="14.00">A</text>
</g>
<!-- 4&#45;&gt;5 -->
<g id="edge19" class="edge">
<title>4&#45;&gt;5</title>
<path fill="none" stroke="black" d="M344.62,-119.99C360.25,-135.62 382,-162.48 382,-191 382,-1237 382,-1237 382,-1237 382,-1256.35 386.75,-1277.59 391.49,-1294"/>
<polygon fill="black" stroke="black" points="388.15,-1295.02 394.44,-1303.55 394.84,-1292.96 388.15,-1295.02"/>
<text text-anchor="middle" x="387" y="-710.3" font-family="Times,serif" font-size="14.00">A</text>
</g>
<!-- 6 -->
<g id="node9" class="node">
<title>6</title>
<ellipse fill="none" stroke="black" cx="497" cy="-192" rx="27" ry="18"/>
<text text-anchor="middle" x="497" y="-188.3" font-family="Times,serif" font-size="14.00">6</text>
</g>
<!-- 4&#45;&gt;6 -->
<g id="edge20" class="edge">
<title>4&#45;&gt;6</title>
<path fill="none" stroke="black" d="M355.99,-108.47C383.37,-112.04 426,-120.63 457,-141 466.55,-147.28 474.88,-156.58 481.43,-165.46"/>
<polygon fill="black" stroke="black" points="478.42,-167.25 486.96,-173.52 484.19,-163.3 478.42,-167.25"/>
<text text-anchor="middle" x="477" y="-144.8" font-family="Times,serif" font-size="14.00">A</text>
</g>
<!-- 5&#45;&gt;3 -->
<g id="edge21" class="edge">
<title>5&#45;&gt;3</title>
<path fill="none" stroke="black" d="M392.72,-1340.15C386.81,-1350.63 378.13,-1364.12 368,-1374 360.74,-1381.08 351.82,-1387.44 343.25,-1392.74"/>
<polygon fill="black" stroke="black" points="341.65,-1389.62 334.77,-1397.69 345.17,-1395.67 341.65,-1389.62"/>
<text text-anchor="middle" x="386" y="-1362.8" font-family="Times,serif" font-size="14.00">A</text>
</g>
<!-- 5&#45;&gt;4 -->
<g id="edge22" class="edge">
<title>5&#45;&gt;4</title>
<path fill="none" stroke="black" d="M382.55,-1309.3C363.33,-1294.42 336,-1267.84 336,-1237 336,-1237 336,-1237 336,-191 336,-172.06 334.25,-150.82 332.5,-134.31"/>
<polygon fill="black" stroke="black" points="336.02,-134.27 331.42,-124.73 329.06,-135.06 336.02,-134.27"/>
<text text-anchor="middle" x="341" y="-710.3" font-family="Times,serif" font-size="14.00">A</text>
</g>
<!-- 5&#45;&gt;6 -->
<g id="edge23" class="edge">
<title>5&#45;&gt;6</title>
<path fill="none" stroke="black" d="M407.12,-1304.99C412.67,-1288.01 420,-1261.04 420,-1237 420,-1237 420,-1237 420,-278 420,-253.35 427.8,-246.57 444,-228 450.17,-220.93 458.09,-214.69 465.92,-209.52"/>
<polygon fill="black" stroke="black" points="467.66,-212.55 474.36,-204.34 464,-206.59 467.66,-212.55"/>
<text text-anchor="middle" x="425" y="-753.8" font-family="Times,serif" font-size="14.00">A</text>
</g>
<!-- 7 -->
<g id="node10" class="node">
<title>7</title>
<ellipse fill="none" stroke="black" cx="569" cy="-1236" rx="27" ry="18"/>
<text text-anchor="middle" x="569" y="-1232.3" font-family="Times,serif" font-size="14.00">7</text>
</g>
<!-- 5&#45;&gt;7 -->
<g id="edge24" class="edge">
<title>5&#45;&gt;7</title>
<path fill="none" stroke="black" d="M422.49,-1311.53C436.6,-1304.63 455.43,-1295.35 472,-1287 494.16,-1275.83 519.05,-1262.99 538.06,-1253.13"/>
<polygon fill="black" stroke="black" points="539.64,-1256.25 546.9,-1248.53 536.41,-1250.04 539.64,-1256.25"/>
<text text-anchor="middle" x="506" y="-1275.8" font-family="Times,serif" font-size="14.00">A</text>
</g>
<!-- 6&#45;&gt;4 -->
<g id="edge25" class="edge">
<title>6&#45;&gt;4</title>
<path fill="none" stroke="black" d="M476.06,-180.41C447.01,-165.71 394.25,-139.01 360.45,-121.91"/>
<polygon fill="black" stroke="black" points="362.06,-118.8 351.55,-117.41 358.89,-125.05 362.06,-118.8"/>
<text text-anchor="middle" x="429" y="-144.8" font-family="Times,serif" font-size="14.00">A</text>
</g>
<!-- 6&#45;&gt;5 -->
<g id="edge26" class="edge">
<title>6&#45;&gt;5</title>
<path fill="none" stroke="black" d="M485.09,-208.33C473.62,-224.65 458,-251.7 458,-278 458,-1237 458,-1237 458,-1237 458,-1261.97 440.83,-1285.13 425.34,-1300.95"/>
<polygon fill="black" stroke="black" points="423.34,-1298.01 418.58,-1307.48 428.2,-1303.05 423.34,-1298.01"/>
<text text-anchor="middle" x="463" y="-753.8" font-family="Times,serif" font-size="14.00">A</text>
</g>
<!-- 6&#45;&gt;7 -->
<g id="edge27" class="edge">
<title>6&#45;&gt;7</title>
<path fill="none" stroke="black" d="M512.62,-206.99C528.25,-222.62 550,-249.48 550,-278 550,-1150 550,-1150 550,-1150 550,-1169.35 554.75,-1190.59 559.49,-1207"/>
<polygon fill="black" stroke="black" points="556.15,-1208.02 562.44,-1216.55 562.84,-1205.96 556.15,-1208.02"/>
<text text-anchor="middle" x="555" y="-710.3" font-family="Times,serif" font-size="14.00">A</text>
</g>
<!-- 8 -->
<g id="node11" class="node">
<title>8</title>
<ellipse fill="none" stroke="black" cx="665" cy="-279" rx="27" ry="18"/>
<text text-anchor="middle" x="665" y="-275.3" font-family="Times,serif" font-size="14.00">8</text>
</g>
<!-- 6&#45;&gt;8 -->
<g id="edge28" class="edge">
<title>6&#45;&gt;8</title>
<path fill="none" stroke="black" d="M523.99,-195.47C551.37,-199.04 594,-207.63 625,-228 634.55,-234.28 642.88,-243.58 649.43,-252.46"/>
<polygon fill="black" stroke="black" points="646.42,-254.25 654.96,-260.52 652.19,-250.3 646.42,-254.25"/>
<text text-anchor="middle" x="645" y="-231.8" font-family="Times,serif" font-size="14.00">A</text>
</g>
<!-- 7&#45;&gt;5 -->
<g id="edge29" class="edge">
<title>7&#45;&gt;5</title>
<path fill="none" stroke="black" d="M556.19,-1252.07C546.04,-1263.15 530.94,-1277.82 515,-1287 491.06,-1300.79 461.1,-1309.71 437.9,-1315.1"/>
<polygon fill="black" stroke="black" points="437.28,-1311.65 428.26,-1317.2 438.78,-1318.49 437.28,-1311.65"/>
<text text-anchor="middle" x="539" y="-1275.8" font-family="Times,serif" font-size="14.00">A</text>
</g>
<!-- 7&#45;&gt;6 -->
<g id="edge30" class="edge">
<title>7&#45;&gt;6</title>
<path fill="none" stroke="black" d="M550.55,-1222.3C531.33,-1207.42 504,-1180.84 504,-1150 504,-1150 504,-1150 504,-278 504,-259.06 502.25,-237.82 500.5,-221.31"/>
<polygon fill="black" stroke="black" points="504.02,-221.27 499.42,-211.73 497.06,-222.06 504.02,-221.27"/>
<text text-anchor="middle" x="509" y="-710.3" font-family="Times,serif" font-size="14.00">A</text>
</g>
<!-- 7&#45;&gt;8 -->
<g id="edge31" class="edge">
<title>7&#45;&gt;8</title>
<path fill="none" stroke="black" d="M575.12,-1217.99C580.67,-1201.01 588,-1174.04 588,-1150 588,-1150 588,-1150 588,-365 588,-340.35 595.8,-333.57 612,-315 618.17,-307.93 626.09,-301.69 633.92,-296.52"/>
<polygon fill="black" stroke="black" points="635.66,-299.55 642.36,-291.34 632,-293.59 635.66,-299.55"/>
<text text-anchor="middle" x="593" y="-753.8" font-family="Times,serif" font-size="14.00">A</text>
</g>
<!-- 9 -->
<g id="node12" class="node">
<title>9</title>
<ellipse fill="none" stroke="black" cx="737" cy="-1149" rx="27" ry="18"/>
<text text-anchor="middle" x="737" y="-1145.3" font-family="Times,serif" font-size="14.00">9</text>
</g>
<!-- 7&#45;&gt;9 -->
<g id="edge32" class="edge">
<title>7&#45;&gt;9</title>
<path fill="none" stroke="black" d="M590.49,-1224.53C604.6,-1217.63 623.43,-1208.35 640,-1200 662.16,-1188.83 687.05,-1175.99 706.06,-1166.13"/>
<polygon fill="black" stroke="black" points="707.64,-1169.25 714.9,-1161.53 704.41,-1163.04 707.64,-1169.25"/>
<text text-anchor="middle" x="674" y="-1188.8" font-family="Times,serif" font-size="14.00">A</text>
</g>
<!-- 8&#45;&gt;6 -->
<g id="edge33" class="edge">
<title>8&#45;&gt;6</title>
<path fill="none" stroke="black" d="M644.06,-267.41C615.01,-252.71 562.25,-226.01 528.45,-208.91"/>
<polygon fill="black" stroke="black" points="530.06,-205.8 519.55,-204.41 526.89,-212.05 530.06,-205.8"/>
<text text-anchor="middle" x="596" y="-231.8" font-family="Times,serif" font-size="14.00">A</text>
</g>
<!-- 8&#45;&gt;7 -->
<g id="edge34" class="edge">
<title>8&#45;&gt;7</title>
<path fill="none" stroke="black" d="M653.09,-295.33C641.62,-311.65 626,-338.7 626,-365 626,-1150 626,-1150 626,-1150 626,-1174.97 608.83,-1198.13 593.34,-1213.95"/>
<polygon fill="black" stroke="black" points="591.34,-1211.01 586.58,-1220.48 596.2,-1216.05 591.34,-1211.01"/>
<text text-anchor="middle" x="631" y="-753.8" font-family="Times,serif" font-size="14.00">A</text>
</g>
<!-- 8&#45;&gt;9 -->
<g id="edge35" class="edge">
<title>8&#45;&gt;9</title>
<path fill="none" stroke="black" d="M680.62,-293.99C696.25,-309.62 718,-336.48 718,-365 718,-1063 718,-1063 718,-1063 718,-1082.35 722.75,-1103.59 727.49,-1120"/>
<polygon fill="black" stroke="black" points="724.15,-1121.02 730.44,-1129.55 730.84,-1118.96 724.15,-1121.02"/>
<text text-anchor="middle" x="723" y="-710.3" font-family="Times,serif" font-size="14.00">A</text>
</g>
<!-- 10 -->
<g id="node13" class="node">
<title>10</title>
<ellipse fill="none" stroke="black" cx="833" cy="-366" rx="27" ry="18"/>
<text text-anchor="middle" x="833" y="-362.3" font-family="Times,serif" font-size="14.00">10</text>
</g>
<!-- 8&#45;&gt;10 -->
<g id="edge36" class="edge">
<title>8&#45;&gt;10</title>
<path fill="none" stroke="black" d="M691.99,-282.47C719.37,-286.04 762,-294.63 793,-315 802.55,-321.28 810.88,-330.58 817.43,-339.46"/>
<polygon fill="black" stroke="black" points="814.42,-341.25 822.96,-347.52 820.19,-337.3 814.42,-341.25"/>
<text text-anchor="middle" x="813" y="-318.8" font-family="Times,serif" font-size="14.00">A</text>
</g>
<!-- 9&#45;&gt;7 -->
<g id="edge37" class="edge">
<title>9&#45;&gt;7</title>
<path fill="none" stroke="black" d="M724.19,-1165.07C714.04,-1176.15 698.94,-1190.82 683,-1200 659.06,-1213.79 629.1,-1222.71 605.9,-1228.1"/>
<polygon fill="black" stroke="black" points="605.28,-1224.65 596.26,-1230.2 606.78,-1231.49 605.28,-1224.65"/>
<text text-anchor="middle" x="707" y="-1188.8" font-family="Times,serif" font-size="14.00">A</text>
</g>
<!-- 9&#45;&gt;8 -->
<g id="edge38" class="edge">
<title>9&#45;&gt;8</title>
<path fill="none" stroke="black" d="M718.55,-1135.3C699.33,-1120.42 672,-1093.84 672,-1063 672,-1063 672,-1063 672,-365 672,-346.06 670.25,-324.82 668.5,-308.31"/>
<polygon fill="black" stroke="black" points="672.02,-308.27 667.42,-298.73 665.06,-309.06 672.02,-308.27"/>
<text text-anchor="middle" x="677" y="-710.3" font-family="Times,serif" font-size="14.00">A</text>
</g>
<!-- 9&#45;&gt;10 -->
<g id="edge39" class="edge">
<title>9&#45;&gt;10</title>
<path fill="none" stroke="black" d="M743.12,-1130.99C748.67,-1114.01 756,-1087.04 756,-1063 756,-1063 756,-1063 756,-452 756,-427.35 763.8,-420.57 780,-402 786.17,-394.93 794.09,-388.69 801.92,-383.52"/>
<polygon fill="black" stroke="black" points="803.66,-386.55 810.36,-378.34 800,-380.59 803.66,-386.55"/>
<text text-anchor="middle" x="761" y="-753.8" font-family="Times,serif" font-size="14.00">A</text>
</g>
<!-- 11 -->
<g id="node14" class="node">
<title>11</title>
<ellipse fill="none" stroke="black" cx="905" cy="-1062" rx="27" ry="18"/>
<text text-anchor="middle" x="905" y="-1058.3" font-family="Times,serif" font-size="14.00">11</text>
</g>
<!-- 9&#45;&gt;11 -->
<g id="edge40" class="edge">
<title>9&#45;&gt;11</title>
<path fill="none" stroke="black" d="M758.49,-1137.53C772.6,-1130.63 791.43,-1121.35 808,-1113 830.16,-1101.83 855.05,-1088.99 874.06,-1079.13"/>
<polygon fill="black" stroke="black" points="875.64,-1082.25 882.9,-1074.53 872.41,-1076.04 875.64,-1082.25"/>
<text text-anchor="middle" x="842" y="-1101.8" font-family="Times,serif" font-size="14.00">A</text>
</g>
<!-- 10&#45;&gt;8 -->
<g id="edge41" class="edge">
<title>10&#45;&gt;8</title>
<path fill="none" stroke="black" d="M812.06,-354.41C783.01,-339.71 730.25,-313.01 696.45,-295.91"/>
<polygon fill="black" stroke="black" points="698.06,-292.8 687.55,-291.41 694.89,-299.05 698.06,-292.8"/>
<text text-anchor="middle" x="764" y="-318.8" font-family="Times,serif" font-size="14.00">A</text>
</g>
<!-- 10&#45;&gt;9 -->
<g id="edge42" class="edge">
<title>10&#45;&gt;9</title>
<path fill="none" stroke="black" d="M821.09,-382.33C809.62,-398.65 794,-425.7 794,-452 794,-1063 794,-1063 794,-1063 794,-1087.97 776.83,-1111.13 761.34,-1126.95"/>
<polygon fill="black" stroke="black" points="759.34,-1124.01 754.58,-1133.48 764.2,-1129.05 759.34,-1124.01"/>
<text text-anchor="middle" x="799" y="-753.8" font-family="Times,serif" font-size="14.00">A</text>
</g>
<!-- 10&#45;&gt;11 -->
<g id="edge43" class="edge">
<title>10&#45;&gt;11</title>
<path fill="none" stroke="black" d="M848.62,-380.99C864.25,-396.62 886,-423.48 886,-452 886,-976 886,-976 886,-976 886,-995.35 890.75,-1016.59 895.49,-1033"/>
<polygon fill="black" stroke="black" points="892.15,-1034.02 898.44,-1042.55 898.84,-1031.96 892.15,-1034.02"/>
<text text-anchor="middle" x="891" y="-710.3" font-family="Times,serif" font-size="14.00">A</text>
</g>
<!-- 12 -->
<g id="node15" class="node">
<title>12</title>
<ellipse fill="none" stroke="black" cx="1001" cy="-453" rx="27" ry="18"/>
<text text-anchor="middle" x="1001" y="-449.3" font-family="Times,serif" font-size="14.00">12</text>
</g>
<!-- 10&#45;&gt;12 -->
<g id="edge44" class="edge">
<title>10&#45;&gt;12</title>
<path fill="none" stroke="black" d="M859.99,-369.47C887.37,-373.04 930,-381.63 961,-402 970.55,-408.28 978.88,-417.58 985.43,-426.46"/>
<polygon fill="black" stroke="black" points="982.42,-428.25 990.96,-434.52 988.19,-424.3 982.42,-428.25"/>
<text text-anchor="middle" x="981" y="-405.8" font-family="Times,serif" font-size="14.00">A</text>
</g>
<!-- 11&#45;&gt;9 -->
<g id="edge45" class="edge">
<title>11&#45;&gt;9</title>
<path fill="none" stroke="black" d="M892.19,-1078.07C882.04,-1089.15 866.94,-1103.82 851,-1113 827.06,-1126.79 797.1,-1135.71 773.9,-1141.1"/>
<polygon fill="black" stroke="black" points="773.28,-1137.65 764.26,-1143.2 774.78,-1144.49 773.28,-1137.65"/>
<text text-anchor="middle" x="875" y="-1101.8" font-family="Times,serif" font-size="14.00">A</text>
</g>
<!-- 11&#45;&gt;10 -->
<g id="edge46" class="edge">
<title>11&#45;&gt;10</title>
<path fill="none" stroke="black" d="M886.55,-1048.3C867.33,-1033.42 840,-1006.84 840,-976 840,-976 840,-976 840,-452 840,-433.06 838.25,-411.82 836.5,-395.31"/>
<polygon fill="black" stroke="black" points="840.02,-395.27 835.42,-385.73 833.06,-396.06 840.02,-395.27"/>
<text text-anchor="middle" x="845" y="-710.3" font-family="Times,serif" font-size="14.00">A</text>
</g>
<!-- 11&#45;&gt;12 -->
<g id="edge47" class="edge">
<title>11&#45;&gt;12</title>
<path fill="none" stroke="black" d="M911.12,-1043.99C916.67,-1027.01 924,-1000.04 924,-976 924,-976 924,-976 924,-539 924,-514.35 931.8,-507.57 948,-489 954.17,-481.93 962.09,-475.69 969.92,-470.52"/>
<polygon fill="black" stroke="black" points="971.66,-473.55 978.36,-465.34 968,-467.59 971.66,-473.55"/>
<text text-anchor="middle" x="929" y="-753.8" font-family="Times,serif" font-size="14.00">A</text>
</g>
<!-- 13 -->
<g id="node16" class="node">
<title>13</title>
<ellipse fill="none" stroke="black" cx="1073" cy="-975" rx="27" ry="18"/>
<text text-anchor="middle" x="1073" y="-971.3" font-family="Times,serif" font-size="14.00">13</text>
</g>
<!-- 11&#45;&gt;13 -->
<g id="edge48" class="edge">
<title>11&#45;&gt;13</title>
<path fill="none" stroke="black" d="M926.49,-1050.53C940.6,-1043.63 959.43,-1034.35 976,-1026 998.16,-1014.83 1023.05,-1001.99 1042.06,-992.13"/>
<polygon fill="black" stroke="black" points="1043.64,-995.25 1050.9,-987.53 1040.41,-989.04 1043.64,-995.25"/>
<text text-anchor="middle" x="1010" y="-1014.8" font-family="Times,serif" font-size="14.00">A</text>
</g>
<!-- 12&#45;&gt;10 -->
<g id="edge49" class="edge">
<title>12&#45;&gt;10</title>
<path fill="none" stroke="black" d="M980.06,-441.41C951.01,-426.71 898.25,-400.01 864.45,-382.91"/>
<polygon fill="black" stroke="black" points="866.06,-379.8 855.55,-378.41 862.89,-386.05 866.06,-379.8"/>
<text text-anchor="middle" x="932" y="-405.8" font-family="Times,serif" font-size="14.00">A</text>
</g>
<!-- 12&#45;&gt;11 -->
<g id="edge50" class="edge">
<title>12&#45;&gt;11</title>
<path fill="none" stroke="black" d="M989.09,-469.33C977.62,-485.65 962,-512.7 962,-539 962,-976 962,-976 962,-976 962,-1000.97 944.83,-1024.13 929.34,-1039.95"/>
<polygon fill="black" stroke="black" points="927.34,-1037.01 922.58,-1046.48 932.2,-1042.05 927.34,-1037.01"/>
<text text-anchor="middle" x="967" y="-753.8" font-family="Times,serif" font-size="14.00">A</text>
</g>
<!-- 12&#45;&gt;13 -->
<g id="edge51" class="edge">
<title>12&#45;&gt;13</title>
<path fill="none" stroke="black" d="M1016.62,-467.99C1032.25,-483.62 1054,-510.48 1054,-539 1054,-889 1054,-889 1054,-889 1054,-908.35 1058.75,-929.59 1063.49,-946"/>
<polygon fill="black" stroke="black" points="1060.15,-947.02 1066.44,-955.55 1066.84,-944.96 1060.15,-947.02"/>
<text text-anchor="middle" x="1059" y="-710.3" font-family="Times,serif" font-size="14.00">A</text>
</g>
<!-- 14 -->
<g id="node17" class="node">
<title>14</title>
<ellipse fill="none" stroke="black" cx="1169" cy="-540" rx="27" ry="18"/>
<text text-anchor="middle" x="1169" y="-536.3" font-family="Times,serif" font-size="14.00">14</text>
</g>
<!-- 12&#45;&gt;14 -->
<g id="edge52" class="edge">
<title>12&#45;&gt;14</title>
<path fill="none" stroke="black" d="M1027.99,-456.47C1055.37,-460.04 1098,-468.63 1129,-489 1138.55,-495.28 1146.88,-504.58 1153.43,-513.46"/>
<polygon fill="black" stroke="black" points="1150.42,-515.25 1158.96,-521.52 1156.19,-511.3 1150.42,-515.25"/>
<text text-anchor="middle" x="1149" y="-492.8" font-family="Times,serif" font-size="14.00">A</text>
</g>
<!-- 13&#45;&gt;11 -->
<g id="edge53" class="edge">
<title>13&#45;&gt;11</title>
<path fill="none" stroke="black" d="M1060.19,-991.07C1050.04,-1002.15 1034.94,-1016.82 1019,-1026 995.06,-1039.79 965.1,-1048.71 941.9,-1054.1"/>
<polygon fill="black" stroke="black" points="941.28,-1050.65 932.26,-1056.2 942.78,-1057.49 941.28,-1050.65"/>
<text text-anchor="middle" x="1043" y="-1014.8" font-family="Times,serif" font-size="14.00">A</text>
</g>
<!-- 13&#45;&gt;12 -->
<g id="edge54" class="edge">
<title>13&#45;&gt;12</title>
<path fill="none" stroke="black" d="M1054.55,-961.3C1035.33,-946.42 1008,-919.84 1008,-889 1008,-889 1008,-889 1008,-539 1008,-520.06 1006.25,-498.82 1004.5,-482.31"/>
<polygon fill="black" stroke="black" points="1008.02,-482.27 1003.42,-472.73 1001.06,-483.06 1008.02,-482.27"/>
<text text-anchor="middle" x="1013" y="-710.3" font-family="Times,serif" font-size="14.00">A</text>
</g>
<!-- 13&#45;&gt;14 -->
<g id="edge55" class="edge">
<title>13&#45;&gt;14</title>
<path fill="none" stroke="black" d="M1079.12,-956.99C1084.67,-940.01 1092,-913.04 1092,-889 1092,-889 1092,-889 1092,-626 1092,-601.35 1099.8,-594.57 1116,-576 1122.17,-568.93 1130.09,-562.69 1137.92,-557.52"/>
<polygon fill="black" stroke="black" points="1139.66,-560.55 1146.36,-552.34 1136,-554.59 1139.66,-560.55"/>
<text text-anchor="middle" x="1097" y="-753.8" font-family="Times,serif" font-size="14.00">A</text>
</g>
<!-- 15 -->
<g id="node18" class="node">
<title>15</title>
<ellipse fill="none" stroke="black" cx="1191" cy="-888" rx="27" ry="18"/>
<text text-anchor="middle" x="1191" y="-884.3" font-family="Times,serif" font-size="14.00">15</text>
</g>
<!-- 13&#45;&gt;15 -->
<g id="edge56" class="edge">
<title>13&#45;&gt;15</title>
<path fill="none" stroke="black" d="M1095.44,-964.59C1109.21,-958.31 1126.84,-949.33 1141,-939 1151.52,-931.32 1161.91,-921.42 1170.47,-912.46"/>
<polygon fill="black" stroke="black" points="1172.81,-915.08 1177.03,-905.37 1167.67,-910.33 1172.81,-915.08"/>
<text text-anchor="middle" x="1163" y="-927.8" font-family="Times,serif" font-size="14.00">A</text>
</g>
<!-- 14&#45;&gt;12 -->
<g id="edge57" class="edge">
<title>14&#45;&gt;12</title>
<path fill="none" stroke="black" d="M1148.06,-528.41C1119.01,-513.71 1066.25,-487.01 1032.45,-469.91"/>
<polygon fill="black" stroke="black" points="1034.06,-466.8 1023.55,-465.41 1030.89,-473.05 1034.06,-466.8"/>
<text text-anchor="middle" x="1100" y="-492.8" font-family="Times,serif" font-size="14.00">A</text>
</g>
<!-- 14&#45;&gt;13 -->
<g id="edge58" class="edge">
<title>14&#45;&gt;13</title>
<path fill="none" stroke="black" d="M1157.09,-556.33C1145.62,-572.65 1130,-599.7 1130,-626 1130,-889 1130,-889 1130,-889 1130,-913.97 1112.83,-937.13 1097.34,-952.95"/>
<polygon fill="black" stroke="black" points="1095.34,-950.01 1090.58,-959.48 1100.2,-955.05 1095.34,-950.01"/>
<text text-anchor="middle" x="1135" y="-753.8" font-family="Times,serif" font-size="14.00">A</text>
</g>
<!-- 14&#45;&gt;15 -->
<g id="edge59" class="edge">
<title>14&#45;&gt;15</title>
<path fill="none" stroke="black" d="M1180.77,-556.55C1184.48,-562.34 1188.1,-569.17 1190,-576 1218.09,-676.79 1204.23,-803.19 1195.83,-858.68"/>
<polygon fill="black" stroke="black" points="1192.43,-857.79 1194.32,-868.21 1199.34,-858.88 1192.43,-857.79"/>
<text text-anchor="middle" x="1211" y="-710.3" font-family="Times,serif" font-size="14.00">A</text>
</g>
<!-- 14&#45;&gt;16 -->
<g id="edge60" class="edge">
<title>14&#45;&gt;16</title>
<path fill="none" stroke="black" d="M1195.92,-543.66C1224.06,-547.4 1268.66,-556.16 1302,-576 1312.9,-582.49 1322.87,-592.23 1330.79,-601.4"/>
<polygon fill="black" stroke="black" points="1328,-603.52 1337.03,-609.06 1333.43,-599.1 1328,-603.52"/>
<text text-anchor="middle" x="1324" y="-579.8" font-family="Times,serif" font-size="14.00">A</text>
</g>
<!-- 15&#45;&gt;13 -->
<g id="edge61" class="edge">
<title>15&#45;&gt;13</title>
<path fill="none" stroke="black" d="M1188.23,-906.32C1185.69,-917.01 1180.9,-930.3 1172,-939 1155.46,-955.16 1131.02,-963.89 1110.55,-968.6"/>
<polygon fill="black" stroke="black" points="1109.95,-965.15 1100.85,-970.57 1111.34,-972.01 1109.95,-965.15"/>
<text text-anchor="middle" x="1186" y="-927.8" font-family="Times,serif" font-size="14.00">A</text>
</g>
<!-- 15&#45;&gt;14 -->
<g id="edge62" class="edge">
<title>15&#45;&gt;14</title>
<path fill="none" stroke="black" d="M1189.91,-869.84C1186.38,-814.27 1175.22,-638.83 1170.81,-569.54"/>
<polygon fill="black" stroke="black" points="1174.32,-569.53 1170.19,-559.77 1167.34,-569.97 1174.32,-569.53"/>
<text text-anchor="middle" x="1185" y="-710.3" font-family="Times,serif" font-size="14.00">A</text>
</g>
<!-- 15&#45;&gt;16 -->
<g id="edge63" class="edge">
<title>15&#45;&gt;16</title>
<path fill="none" stroke="black" d="M1218.4,-886.83C1261.57,-884.85 1343.74,-873.7 1375,-819 1390.54,-791.8 1369.45,-702.25 1356.99,-656.07"/>
<polygon fill="black" stroke="black" points="1360.39,-655.25 1354.37,-646.53 1353.64,-657.1 1360.39,-655.25"/>
<text text-anchor="middle" x="1383" y="-753.8" font-family="Times,serif" font-size="14.00">A</text>
</g>
<!-- 15&#45;&gt;17 -->
<g id="edge64" class="edge">
<title>15&#45;&gt;17</title>
<path fill="none" stroke="black" d="M1210.96,-875.54C1236.23,-861.02 1279.98,-835.9 1309.21,-819.11"/>
<polygon fill="black" stroke="black" points="1310.64,-822.32 1317.57,-814.31 1307.16,-816.25 1310.64,-822.32"/>
<text text-anchor="middle" x="1278" y="-840.8" font-family="Times,serif" font-size="14.00">A</text>
</g>
<!-- 16&#45;&gt;18 -->
<g id="edge68" class="edge">
<title>16&#45;&gt;18</title>
<path fill="none" stroke="black" d="M1339.97,-644.34C1333.34,-656.32 1324.21,-672.84 1316.56,-686.68"/>
<polygon fill="black" stroke="black" points="1313.57,-684.84 1311.79,-695.29 1319.7,-688.23 1313.57,-684.84"/>
<text text-anchor="middle" x="1333" y="-666.8" font-family="Times,serif" font-size="14.00">A</text>
</g>
<!-- 16&#45;&gt;14 -->
<g id="edge65" class="edge">
<title>16&#45;&gt;14</title>
<path fill="none" stroke="black" d="M1327.29,-615.75C1295.71,-600.84 1236.94,-573.08 1200.58,-555.91"/>
<polygon fill="black" stroke="black" points="1202.41,-552.91 1191.88,-551.8 1199.43,-559.24 1202.41,-552.91"/>
<text text-anchor="middle" x="1274" y="-579.8" font-family="Times,serif" font-size="14.00">A</text>
</g>
<!-- 16&#45;&gt;15 -->
<g id="edge66" class="edge">
<title>16&#45;&gt;15</title>
<path fill="none" stroke="black" d="M1361.93,-643.19C1366.34,-649.06 1370.93,-656.03 1374,-663 1402.1,-726.83 1413.83,-753.1 1391,-819 1384.98,-836.39 1381.59,-842.23 1366,-852 1324.43,-878.06 1267.32,-885.27 1229.81,-886.98"/>
<polygon fill="black" stroke="black" points="1229.75,-883.48 1219.88,-887.31 1229.99,-890.48 1229.75,-883.48"/>
<text text-anchor="middle" x="1408" y="-753.8" font-family="Times,serif" font-size="14.00">A</text>
</g>
<!-- 16&#45;&gt;17 -->
<g id="edge67" class="edge">
<title>16&#45;&gt;17</title>
<path fill="none" stroke="black" d="M1375,-632.45C1394.94,-637.05 1422.01,-646.05 1440,-663 1473.35,-694.42 1482.32,-728.22 1455,-765 1437.35,-788.76 1404.07,-796.97 1377.67,-799.55"/>
<polygon fill="black" stroke="black" points="1377.7,-796.04 1367.98,-800.25 1378.2,-803.02 1377.7,-796.04"/>
<text text-anchor="middle" x="1476" y="-710.3" font-family="Times,serif" font-size="14.00">A</text>
</g>
<!-- 17&#45;&gt;18 -->
<g id="edge71" class="edge">
<title>17&#45;&gt;18</title>
<path fill="none" stroke="black" d="M1328.37,-784.04C1324.77,-778.21 1320.92,-771.46 1318,-765 1314.84,-758.03 1312.03,-750.24 1309.69,-742.94"/>
<polygon fill="black" stroke="black" points="1313.07,-742.04 1306.83,-733.48 1306.37,-744.06 1313.07,-742.04"/>
<text text-anchor="middle" x="1323" y="-753.8" font-family="Times,serif" font-size="14.00">A</text>
</g>
<!-- 17&#45;&gt;19 -->
<g id="edge72" class="edge">
<title>17&#45;&gt;19</title>
<path fill="none" stroke="black" d="M1366.16,-799.39C1430.22,-796.27 1590.06,-778.32 1653,-678 1663.82,-660.75 1642.66,-647.39 1621.32,-638.84"/>
<polygon fill="black" stroke="black" points="1622.66,-635.6 1612.06,-635.44 1620.24,-642.17 1622.66,-635.6"/>
<text text-anchor="middle" x="1643" y="-710.3" font-family="Times,serif" font-size="14.00">A</text>
</g>
<!-- 17&#45;&gt;15 -->
<g id="edge69" class="edge">
<title>17&#45;&gt;15</title>
<path fill="none" stroke="black" d="M1326.23,-817.32C1316.44,-828.23 1302.09,-842.59 1287,-852 1268.68,-863.43 1246.07,-871.9 1227.4,-877.65"/>
<polygon fill="black" stroke="black" points="1226.43,-874.29 1217.81,-880.45 1228.39,-881 1226.43,-874.29"/>
<text text-anchor="middle" x="1310" y="-840.8" font-family="Times,serif" font-size="14.00">A</text>
</g>
<!-- 17&#45;&gt;16 -->
<g id="edge70" class="edge">
<title>17&#45;&gt;16</title>
<path fill="none" stroke="black" d="M1365.89,-797.25C1386.43,-793.57 1413.43,-785 1427,-765 1442.62,-741.98 1476.17,-756.42 1409,-663 1402.36,-653.77 1392.48,-646.59 1382.64,-641.21"/>
<polygon fill="black" stroke="black" points="1384.42,-638.18 1373.9,-636.9 1381.32,-644.46 1384.42,-638.18"/>
<text text-anchor="middle" x="1453" y="-710.3" font-family="Times,serif" font-size="14.00">A</text>
</g>
</g>
</svg>
